<svg id="visual" viewBox="0 0 1200 1200" width="1200" height="1200" xmlns="http://www.w3.org/2000/svg" xmlns:xlink="http://www.w3.org/1999/xlink" version="1.1"><rect x="0" y="0" width="1200" height="1200" fill="#002233"></rect><path d="M0 331L33.3 338.8C66.7 346.7 133.3 362.3 200 447.3C266.7 532.3 333.3 686.7 400 703.5C466.7 720.3 533.3 599.7 600 506.2C666.7 412.7 733.3 346.3 800 387.7C866.7 429 933.3 578 1000 635.3C1066.7 692.7 1133.3 658.3 1166.7 641.2L1200 624L1200 1201L1166.7 1201C1133.3 1201 1066.7 1201 1000 1201C933.3 1201 866.7 1201 800 1201C733.3 1201 666.7 1201 600 1201C533.3 1201 466.7 1201 400 1201C333.3 1201 266.7 1201 200 1201C133.3 1201 66.7 1201 33.3 1201L0 1201Z" fill="#e2e2e2" stroke-linecap="round" stroke-linejoin="miter"></path></svg>